# xmcd
#
# Track frame offsets:
#	150
#	11970
#	28029
#	49596
#	61468
#	76620
#	96357
#	112539
#	129061
#	152309
#	165082
#	185221
#	201957
#	215235
#	228467
#	243827
#	265490
#	285544
#
# Disc length: 4056 seconds
#
# Revision: 1
# Processed by: cddbd v1.5.1PL0 Copyright (c) Steve Scherf et al.
# Submitted via: audiograbber 1.83.01
#
DISCID=e90fd612
DTITLE=сборник - Гуляй страна. Выпуск 5. (2004)
DYEAR=1900
DGENRE=
TTITLE0=Монгол Шуудан. - Москва колбасная.
TTITLE1=Владимир Асмолов. - Гуляет братва.
TTITLE2=Жека and Светлана Питерская. - Бродяга.
TTITLE3=Девичья артель. - Наливать так наливать.
TTITLE4=Сергей Азаров. - Побег.
TTITLE5=Слава Корецкий. - Кручу налево.
TTITLE6=Сергей Любавин. - Свдьба.
TTITLE7=Хрустящие. - Урок секса.
TTITLE8=Анатолий Полотно. - В отпуске.
TTITLE9=Девичий десант. - Шевеление.
TTITLE10=Михаил Кленов. - Несовершеннолетняя.
TTITLE11=Михаил Шелег. - Рыжая.
TTITLE12=Девичий десант. - Ехал Пушкин на Кавказ.
TTITLE13=Леонид Гуткович. - Юность - хулиганка.
TTITLE14=Геннадий Рогулин. - Моя Джаным.
TTITLE15=Любо-дорого. - Купалье.
TTITLE16=Михаил Боярский. - В Кейптаунском порту.
TTITLE17=Юрий Лоза. - Пой, моя гитара.
EXTD=
EXTT0=
EXTT1=
EXTT2=
EXTT3=
EXTT4=
EXTT5=
EXTT6=
EXTT7=
EXTT8=
EXTT9=
EXTT10=
EXTT11=
EXTT12=
EXTT13=
EXTT14=
EXTT15=
EXTT16=
EXTT17=
PLAYORDER=
